<svg xmlns="http://www.w3.org/2000/svg" version="1.1" xmlns:xlink="http://www.w3.org/1999/xlink" xmlns:svgjs="http://svgjs.dev/svgjs" width="128" height="128" viewBox="0 0 128 128"><g transform="matrix(0.8046875,0,0,0.8046875,12.60732791102565,9.10473790322581)"><svg viewBox="0 0 145 155" data-background-color="#3f33f9" preserveAspectRatio="xMidYMid meet" height="136" width="128" xmlns="http://www.w3.org/2000/svg" xmlns:xlink="http://www.w3.org/1999/xlink"><g id="tight-bounds" transform="matrix(1,0,0,1,-0.15109269027882988,0.25)"><svg viewBox="0 0 145.30218538055766 154.5" height="154.5" width="145.30218538055766"><g><svg viewBox="0 0 145.30218538055766 154.5" height="154.5" width="145.30218538055766"><g><svg viewBox="0 0 145.30218538055766 154.5" height="154.5" width="145.30218538055766"><g id="textblocktransform"><svg viewBox="0 0 145.30218538055766 154.5" height="154.5" width="145.30218538055766" id="textblock"><g><svg viewBox="0 0 145.30218538055766 154.5" height="154.5" width="145.30218538055766"><g transform="matrix(1,0,0,1,0,0)"><svg width="145.30218538055766" viewBox="2.37 -32.4 30.470000000000002 32.4" height="154.5" data-palette-color="#ffffff"><path d="M13.16-32.4L13.16 0 8.86 0 2.37-6.47 2.37-25.93 8.86-32.4 13.16-32.4ZM22.05-25.93L14.87-25.93 14.87-32.4 26.37-32.4 32.84-25.93 32.84-19.41 22.05-19.41 22.05-25.93ZM26.37 0L14.87 0 14.87-6.47 22.05-6.47 22.05-11.21 32.84-11.21 32.84-6.47 26.37 0Z" opacity="1" transform="matrix(1,0,0,1,0,0)" fill="#ffffff" class="wordmark-text-0" data-fill-palette-color="primary" id="text-0"></path></svg></g></svg></g></svg></g></svg></g><g></g></svg></g><defs></defs></svg><rect width="145.30218538055766" height="154.5" fill="none" stroke="none" visibility="hidden"></rect></g></svg></g></svg>