<svg xmlns="http://www.w3.org/2000/svg" width="418.2" height="126.23341435395021" viewBox="0 0 350 105.64728604467378"><defs id="SvgjsDefs1236"><linearGradient id="SvgjsLinearGradient1241" x1="0" y1="1" x2="1" y2="0"><stop id="SvgjsStop1242" stop-color="#fff7ae" offset="0"/><stop id="SvgjsStop1243" stop-color="#9b6326" offset="0.21"/><stop id="SvgjsStop1244" stop-color="#fff7ae" offset="0.38"/><stop id="SvgjsStop1245" stop-color="#d3c175" offset="0.53"/><stop id="SvgjsStop1246" stop-color="#fceec4" offset="0.65"/><stop id="SvgjsStop1247" stop-color="#b78626" offset="0.7"/><stop id="SvgjsStop1248" stop-color="#fffacf" offset="0.82"/><stop id="SvgjsStop1249" stop-color="#9b6326" offset="1"/></linearGradient><linearGradient id="SvgjsLinearGradient1250" x1="0" y1="1" x2="1" y2="0"><stop id="SvgjsStop1251" stop-color="#fff7ae" offset="0"/><stop id="SvgjsStop1252" stop-color="#9b6326" offset="0.21"/><stop id="SvgjsStop1253" stop-color="#fff7ae" offset="0.38"/><stop id="SvgjsStop1254" stop-color="#d3c175" offset="0.53"/><stop id="SvgjsStop1255" stop-color="#fceec4" offset="0.65"/><stop id="SvgjsStop1256" stop-color="#b78626" offset="0.7"/><stop id="SvgjsStop1257" stop-color="#fffacf" offset="0.82"/><stop id="SvgjsStop1258" stop-color="#9b6326" offset="1"/></linearGradient></defs><g id="SvgjsG1237" featurekey="symbolFeature-0" transform="matrix(1.5637564659118652,0,0,1.5637564659118652,97.18121770505466,-46.09954267779557)" fill="url(#SvgjsLinearGradient1241)"><g xmlns="http://www.w3.org/2000/svg"><path fill="url(#SvgjsLinearGradient1241)" d="M92.941,34.099c-3.372-0.828-7.271-1.852-10.749-3.29l-4.61,2.108V32.04c0-1.413-1.146-2.56-2.561-2.56   s-2.56,1.146-2.56,2.56v0.878l-4.61-2.108c-3.479,1.438-7.377,2.462-10.75,3.29c-1.368,0.336-1.587,0.739-1.587,1.045   c0,0.537,1.637,0.537,1.637,0.537h15.311v2.301H72.12H56.609H42.92H27.409h-0.342v-2.301h15.31c0,0,1.639,0,1.639-0.537   c0-0.306-0.22-0.709-1.588-1.045c-3.373-0.828-7.271-1.852-10.749-3.29l-4.611,2.108V32.04c0-1.413-1.146-2.56-2.56-2.56   s-2.561,1.146-2.561,2.56v0.878l-4.611-2.108c-3.479,1.438-7.375,2.462-10.748,3.29C5.219,34.435,5,34.838,5,35.144   c0,0.537,1.637,0.537,1.637,0.537h15.311V38.5c0,1.274,0.934,2.323,2.153,2.519c0.104,0.022,0.21,0.035,0.32,0.035h0.022   c0.021,0,0.042,0.006,0.064,0.006c0.021,0,0.042-0.006,0.064-0.006h2.837h13.012v3.128c-7.599,3.538-12.882,11.244-12.882,20.164   c0,0.85,0.688,1.537,1.536,1.537s1.536-0.688,1.536-1.537c0-7.334,4.145-13.717,10.212-16.936c0.445,0.688,1.216,1.146,2.097,1.146   h13.689c0.881,0,1.651-0.458,2.097-1.146c6.067,3.219,10.212,9.602,10.212,16.936c0,0.85,0.688,1.537,1.536,1.537   c0.848,0,1.536-0.688,1.536-1.537c0-8.92-5.283-16.626-12.882-20.164v-3.128H72.12h2.838c0.021,0,0.041,0.006,0.063,0.006   s0.043-0.006,0.064-0.006h0.022c0.109,0,0.217-0.013,0.32-0.035c1.219-0.195,2.153-1.244,2.153-2.519v-2.819h15.311   c0,0,1.637,0,1.637-0.537C94.529,34.838,94.311,34.435,92.941,34.099z"/><path fill="url(#SvgjsLinearGradient1241)" d="M56.644,53.643h-1.206v-1.635c0-0.566-0.46-1.027-1.027-1.027h-2.99c-0.568,0-1.029,0.461-1.029,1.027   v1.635h-7.506c-1.361,0-2.464,1.102-2.464,2.463v7.312c0,1.361,1.103,2.465,2.464,2.465h13.759c1.36,0,2.464-1.104,2.464-2.465   v-7.312C59.107,54.744,58.004,53.643,56.644,53.643z M52.915,63.258c-1.931,0-3.495-1.564-3.495-3.494   c0-1.932,1.564-3.496,3.495-3.496c1.93,0,3.495,1.564,3.495,3.496C56.41,61.693,54.845,63.258,52.915,63.258z"/></g></g><g id="SvgjsG1238" featurekey="nameFeature-0" transform="matrix(0.938639760017395,0,0,0.938639760017395,0.000001790313271676172,66.93778326336584)" fill="url(#SvgjsLinearGradient1250)"><path d="M30.6 11.96 l0 9.4 l-17.2 0 c-2.36 0.2 -4.16 2.24 -4.16 4.64 s1.8 4.36 4.16 4.64 l10.96 0 l0 3.12 l-10.96 0 c-4.04 -0.32 -7.24 -3.64 -7.24 -7.8 c0 -4 3.08 -7.4 7.08 -7.72 l14.24 0 l0 -3.16 l-14.08 0 l0 0.04 c-5.72 0.32 -10.28 5.04 -10.28 10.88 c0 5.8 4.56 10.56 10.28 10.88 l14.08 0 l0 -6.24 l3.12 0 l0 9.36 l-17.2 0 c-7.48 -0.32 -13.4 -6.48 -13.4 -14 c0 -7.56 5.92 -13.68 13.4 -14 z M54.32000000000001 30.64 l1.8 -3.12 l5.44 9.36 l3.6 0 c-0.8 -1.28 -8.4 -14.28 -9.04 -15.56 l-7.84 13.6 l-2.92 5.08 l-10.8 0 c0.6 -1 4.64 -8.04 8.52 -14.8 c2.28 -3.96 4.8 -8.4 7.64 -13.24 l3.6 0 l-7.44 12.88 l-6.92 12.04 l3.6 0 c4.92 -8.68 8 -13.8 12.56 -21.8 c0.28 0.48 14.36 24.88 14.44 24.92 l-10.8 0 z M92.11999999999999 27.84 l8.96 -15.88 l9.92 0 l0 28.04 l-9.36 0 l0 -10.48 l-5.96 10.48 l-7.16 0 l-9.08 -15.92 l0 -5.88 l10.92 18.68 l3.52 0 l10.88 -18.68 l0 18.68 l3.12 0 l0 -21.8 l-5 0 l-10.84 18.72 l-10.68 -18.72 l-5 0 l0 21.8 l3.08 0 l0 -5.88 l3.12 5.36 l0 3.64 l-9.32 0 l0 -28.04 l9.92 0 z M147.2 11.96 l0 9.4 l-17.2 0 c-2.36 0.2 -4.16 2.24 -4.16 4.64 s1.8 4.36 4.16 4.64 l10.96 0 l0 3.12 l-10.96 0 c-4.04 -0.32 -7.24 -3.64 -7.24 -7.8 c0 -4 3.08 -7.4 7.08 -7.72 l14.24 0 l0 -3.16 l-14.08 0 l0 0.04 c-5.72 0.32 -10.28 5.04 -10.28 10.88 c0 5.8 4.56 10.56 10.28 10.88 l14.08 0 l0 -6.24 l3.12 0 l0 9.36 l-17.2 0 c-7.48 -0.32 -13.4 -6.48 -13.4 -14 c0 -7.56 5.92 -13.68 13.4 -14 z M165.56 10.719999999999999 c8.4 0 15.24 6.84 15.24 15.28 s-6.84 15.24 -15.24 15.24 c-8.44 0 -15.28 -6.8 -15.28 -15.24 s6.84 -15.28 15.28 -15.28 z M165.56 38.16 c6.72 0 12.16 -5.44 12.16 -12.16 s-5.44 -12.2 -12.16 -12.2 c-6.76 0 -12.2 5.48 -12.2 12.2 s5.44 12.16 12.2 12.16 z M165.56 16.88 c5 0 9.08 4.12 9.08 9.12 s-4.08 9.08 -9.08 9.08 s-9.12 -4.08 -9.12 -9.08 s4.12 -9.12 9.12 -9.12 z M165.56 32 c3.32 0 6 -2.68 6 -6 c0 -3.36 -2.68 -6.04 -6 -6.04 c-3.36 0 -6.04 2.68 -6.04 6.04 c0 3.32 2.68 6 6.04 6 z M214.64 40 l-10.8 0 l-3.64 -6.28 l-7 0 l0 6.28 l-9.32 0 l0 -15.6 l22.88 0.04 c2.6 0 4.68 -2.12 4.68 -4.68 c0 -2.6 -2.08 -4.68 -4.68 -4.68 l-19.76 0 l0 3.12 l19.76 0 c0.84 0.04 1.48 0.72 1.48 1.56 s-0.64 1.52 -1.48 1.56 l-0.04 0 l-0.04 0 l-22.8 0 l0 -9.36 l22.88 0 c4.32 0 7.8 3.48 7.8 7.8 c0 4.28 -3.48 7.8 -7.8 7.8 l-19.76 -0.04 l0 9.36 l3.12 0 l0 -6.28 l11.88 0 c1.28 2.32 3.44 5.88 3.64 6.28 l3.6 0 c-0.32 -0.44 -2.16 -3.72 -3.64 -6.28 l3.6 0 c1.32 2.28 2.64 4.64 3.72 6.4 z M220.24 11.96 l17.2 0 c7.48 0.32 13.4 6.48 13.4 14 c0 7.56 -5.92 13.72 -13.4 14.04 l-17.2 0 l0 -21.8 l17.2 0 c4.04 0.32 7.24 3.64 7.24 7.8 c0 4 -3.08 7.44 -7.08 7.76 l-11.12 0 l0 -9.84 l3.12 0 l0 6.72 l7.84 -0.04 c2.36 -0.2 4.16 -2.24 4.16 -4.6 c0 -2.04 -1.28 -3.72 -3.08 -4.4 c-0.68 -0.28 -1.08 -0.28 -2.16 -0.28 l-13 0 l0 15.56 l14.08 0 c5.72 -0.32 10.28 -5.04 10.28 -10.92 c0 -5.8 -4.56 -10.56 -10.28 -10.88 l-17.2 0 l0 -3.12 z M285.44 11.96 l0 9.36 l-21.24 0 l0 3.12 l15.76 0 l0 3.12 l-18.88 0 l0 -9.36 l21.24 0 l0 -3.12 l-24.36 0 l0 21.8 l24.36 0 l0 -3.12 l-21.24 0 l0 -3.12 l24.36 0 l0 9.36 l-30.6 0 l0 -28.04 l30.6 0 z M321.8 40 l-10.8 0 l-3.64 -6.28 l-7 0 l0 6.28 l-9.32 0 l0 -15.6 l22.88 0.04 c2.6 0 4.68 -2.12 4.68 -4.68 c0 -2.6 -2.08 -4.68 -4.68 -4.68 l-19.76 0 l0 3.12 l19.76 0 c0.84 0.04 1.48 0.72 1.48 1.56 s-0.64 1.52 -1.48 1.56 l-0.04 0 l-0.04 0 l-22.8 0 l0 -9.36 l22.88 0 c4.32 0 7.8 3.48 7.8 7.8 c0 4.28 -3.48 7.8 -7.8 7.8 l-19.76 -0.04 l0 9.36 l3.12 0 l0 -6.28 l11.88 0 c1.28 2.32 3.44 5.88 3.64 6.28 l3.6 0 c-0.32 -0.44 -2.16 -3.72 -3.64 -6.28 l3.6 0 c1.32 2.28 2.64 4.64 3.72 6.4 z M336.76000000000005 40 l-9.36 0 l0 -28.04 l9.36 0 l0 21.8 l-3.12 0 l0 -18.68 l-3.12 0 l0 21.8 l6.24 0 l0 3.12 z M357.64 10.719999999999999 c8.4 0 15.24 6.84 15.24 15.28 s-6.84 15.24 -15.24 15.24 c-8.44 0 -15.28 -6.8 -15.28 -15.24 s6.84 -15.28 15.28 -15.28 z M357.64 38.16 c6.72 0 12.16 -5.44 12.16 -12.16 s-5.44 -12.2 -12.16 -12.2 c-6.76 0 -12.2 5.48 -12.2 12.2 s5.44 12.16 12.2 12.16 z M357.64 16.88 c5 0 9.08 4.12 9.08 9.12 s-4.08 9.08 -9.08 9.08 s-9.12 -4.08 -9.12 -9.08 s4.12 -9.12 9.12 -9.12 z M357.64 32 c3.32 0 6 -2.68 6 -6 c0 -3.36 -2.68 -6.04 -6 -6.04 c-3.36 0 -6.04 2.68 -6.04 6.04 c0 3.32 2.68 6 6.04 6 z"/></g></svg>