<svg xmlns="http://www.w3.org/2000/svg" version="1.1" xmlns:xlink="http://www.w3.org/1999/xlink" xmlns:svgjs="http://svgjs.dev/svgjs" width="2000" height="202" viewBox="0 0 2000 202"><g transform="matrix(1,0,0,1,-1.2121212121212466,-0.18175993434104498)"><svg viewBox="0 0 396 40" data-background-color="#3f33f9" preserveAspectRatio="xMidYMid meet" height="202" width="2000" xmlns="http://www.w3.org/2000/svg" xmlns:xlink="http://www.w3.org/1999/xlink"><g id="tight-bounds" transform="matrix(1,0,0,1,0.2400000000000091,0.035992066206148365)"><svg viewBox="0 0 395.52 39.92801586758771" height="39.92801586758771" width="395.52"><g><svg viewBox="0 0 395.52 39.92801586758771" height="39.92801586758771" width="395.52"><g><svg viewBox="0 0 395.52 39.92801586758771" height="39.92801586758771" width="395.52"><g id="textblocktransform"><svg viewBox="0 0 395.52 39.92801586758771" height="39.92801586758771" width="395.52" id="textblock"><g><svg viewBox="0 0 395.52 39.92801586758771" height="39.92801586758771" width="395.52"><g transform="matrix(1,0,0,1,0,0)"><svg width="395.52" viewBox="2.37 -36.04 356.93 36.04" height="39.92801586758771" data-palette-color="#ffffff"><path d="M13.16-32.4L13.16 0 8.86 0 2.37-6.47 2.37-25.93 8.86-32.4 13.16-32.4ZM22.05-25.93L14.87-25.93 14.87-32.4 26.37-32.4 32.84-25.93 32.84-19.41 22.05-19.41 22.05-25.93ZM26.37 0L14.87 0 14.87-6.47 22.05-6.47 22.05-11.21 32.84-11.21 32.84-6.47 26.37 0ZM65.33 0L54.78 0 54.78-19.46 39.43-19.46 39.43-22.68 42.67-25.93 58.86-25.93 65.33-19.46 65.33 0ZM41.6-15.09L53.07-15.09 53.07-10.6 47.51-10.6 47.51-6.05 53.07-6.05 53.07-3.2 49.85 0 41.6 0 37.25-4.27 37.25-10.77 41.6-15.09ZM81.37 0L70.55 0 70.55-25.93 81.37-25.93 81.37 0ZM87.47 0L87.47-19.46 83.08-19.46 83.08-22.51 86.47-25.93 94.82-25.93 98.29-22.46 98.29 0 87.47 0ZM104.39 0L104.39-19.46 100-19.46 100-22.46 103.32-25.93 109.91-25.93 115.18-20.61 115.18 0 104.39 0ZM130.63-25.93L130.63 0 126.31 0 119.84-6.47 119.84-19.46 126.31-25.93 130.63-25.93ZM137.13-19.46L132.34-19.46 132.34-25.93 141.45-25.93 147.92-19.46 147.92-15.58 137.13-15.58 137.13-19.46ZM141.45 0L132.34 0 132.34-6.05 137.13-6.05 137.13-9.3 147.92-9.3 147.92-6.47 141.45 0ZM181.26-19.46L181.26-6.47 174.79 0 167.57 0 167.57-6.05 170.25-6.05 170.25-19.46 167.57-19.46 167.57-25.93 174.79-25.93 181.26-19.46ZM163.05-19.46L163.05-6.05 165.86-6.05 165.86 0 158.61 0 152.14-6.47 152.14-19.46 158.61-25.93 165.86-25.93 165.86-19.46 163.05-19.46ZM203.23-13.16L203.23-19.46 198.64-19.46 198.64-22.29 202.26-25.93 208.8-25.93 214.05-19.87 214.05-13.16 203.23-13.16ZM196.91 0L186.12 0 186.12-25.93 196.91-25.93 196.91 0ZM234.85-35.82L245.64-35.82 245.64 0 234.85 0 234.85-35.82ZM227.94-19.46L227.94-6.05 233.14-6.05 233.14-2.56 230.58 0 222.98 0 217.15-5.83 217.15-20.09 222.98-25.93 233.14-25.93 233.14-19.46 227.94-19.46ZM261.29-25.93L261.29 0 256.96 0 250.5-6.47 250.5-19.46 256.96-25.93 261.29-25.93ZM278.62-10.4L263-10.4 263-14.92 268.68-14.92 268.68-19.46 263-19.46 263-25.93 272.15-25.93 278.62-19.46 278.62-10.4ZM274.27 0L263 0 263-6.05 277.5-6.05 277.5-3.25 274.27 0ZM300.32-13.16L300.32-19.46 295.73-19.46 295.73-22.29 299.35-25.93 305.89-25.93 311.14-19.87 311.14-13.16 300.32-13.16ZM294 0L283.21 0 283.21-25.93 294-25.93 294 0ZM314.48 0L314.48-25.93 325.29-25.93 325.29 0 314.48 0ZM314.48-29.15L314.48-36.04 325.29-36.04 325.29-29.15 314.48-29.15ZM359.3-19.46L359.3-6.47 352.83 0 345.6 0 345.6-6.05 348.29-6.05 348.29-19.46 345.6-19.46 345.6-25.93 352.83-25.93 359.3-19.46ZM341.09-19.46L341.09-6.05 343.9-6.05 343.9 0 336.64 0 330.18-6.47 330.18-19.46 336.64-25.93 343.9-25.93 343.9-19.46 341.09-19.46Z" opacity="1" transform="matrix(1,0,0,1,0,0)" fill="#ffffff" class="wordmark-text-0" data-fill-palette-color="primary" id="text-0"></path></svg></g></svg></g></svg></g></svg></g><g></g></svg></g><defs></defs></svg><rect width="395.52" height="39.92801586758771" fill="none" stroke="none" visibility="hidden"></rect></g></svg></g></svg>